<?xml version="1.0" encoding="iso-8859-1"?>
<!-- Uploaded to: SVG Repo, www.svgrepo.com, Generator: SVG Repo Mixer Tools -->
<!DOCTYPE svg PUBLIC "-//W3C//DTD SVG 1.1//EN" "http://www.w3.org/Graphics/SVG/1.1/DTD/svg11.dtd">
<svg fill="#000000" version="1.1" id="Capa_1" xmlns="http://www.w3.org/2000/svg" xmlns:xlink="http://www.w3.org/1999/xlink" 
	 width="800px" height="800px" viewBox="0 0 192.173 192.173"
	 xml:space="preserve">
<g>
	<path d="M153.417,128.351c0.399-26.687,1.049-53.362-0.877-79.982c-0.07-2.722-0.271-5.426-0.667-8.095
		c-0.011-0.111-0.024-0.223-0.034-0.335c0.472-4.236,0.852-8.479,0.689-12.762c-0.06-1.59-1.255-2.809-2.855-2.856
		c-12.319-0.357-24.667-0.641-37.017-0.766c-0.05-0.325-0.118-0.647-0.201-0.979c-0.007-0.024-0.021-0.043-0.029-0.067
		c-1.415-6.537-2.337-13.74-3.262-20.419c-0.172-1.231-1.605-2.091-2.745-2.09c-7.328,0.011-14.595,0.195-21.704,2.145
		c-1.225,0.336-2.063,1.469-2.078,2.73c-0.07,5.981-0.922,12.804,0.736,18.761c-2.5,0.036-5.002,0.041-7.5,0.097
		c-9.513,0.211-18.758,1.325-28.253,0.757c-2.185-0.131-4.587,0.426-5.546,1.876h-1.212c-1.582,0-2.794,1.293-2.84,2.84
		c-0.77,26.176,0.756,52.376,0.291,78.57c-0.174,9.782-0.464,19.7,0.431,29.455c0.047,0.516,0.086,1.178,0.138,1.915
		c-0.31,3.298-0.625,7.274,0.361,10.127c-0.838,2.761-0.865,4.55-0.091,7.648c0.285,1.14,1.295,1.711,2.385,1.815
		c7.863,0.756,15.743,0.629,23.628,0.254c-3.226,9.692-5.74,19.754-8.113,29.637c-0.53,2.208,1.359,3.894,3.485,3.484
		c3.602-0.692,7.214-1.326,10.816-2.02c1.259-0.242,2.044-1.548,2.086-2.74c0.202-5.726,1.543-11.23,3.165-16.677
		c1.592-4.093,2.917-8.282,3.916-12.558c5.89-0.326,11.779-0.566,17.662-0.459c5.416,0.1,10.833,0.344,16.245,0.524
		c0.035,0.068,0.071,0.14,0.093,0.187c0.67,1.441,1.01,3.069,1.388,4.606c1.207,4.911,2.241,9.818,3.939,14.597
		c2.781,7.826,8.4,15.853,17.742,12.535c1.466-0.52,2.431-1.93,1.995-3.514c-2.783-10.109-8.335-18.944-13.053-28.203
		c7.983-0.044,15.942-0.561,23.854-2.232c1.064-0.226,2.105-1.476,1.977-2.597c0.043,0.372,0.039-0.261-0.038-0.971
		c0.185-0.313,0.319-0.665,0.389-1.035c0.248-0.383,0.43-0.834,0.489-1.373C153.983,143.144,155.276,135.341,153.417,128.351z
		 M91.842,9.384c3.296-0.392,6.59-0.74,9.903-0.899c0.224,5.014-0.065,10.041-0.164,15.062c-3.605-0.005-7.21-0.007-10.814,0.021
		C90.888,18.805,90.985,14.108,91.842,9.384z M98.224,141.154c-8.676,0.221-17.354,0.406-26.031,0.582
		c-6.864,0.138-14.584-0.713-21.277,1.148c1.716-4.677,1.658-10.439,1.795-15.057c0.276-9.325-0.734-18.688-1.294-27.986
		c-0.621-10.307-0.068-20.64-0.383-30.962c-0.339-11.12-0.409-22.106,0.163-33.183c15.7,3.034,33.294,1.381,49.091,1.466
		c10.469,0.056,20.938,0.05,31.405-0.039c1.873-0.016,4.472,0.242,7.105,0.322c-1.051,6.618,0.022,14.267-0.025,20.771
		c-0.07,9.538-0.177,19.075-0.163,28.613c0.027,17.419-0.472,36.05,3.644,53.198C127.579,140.367,112.901,140.779,98.224,141.154z"
		/>
</g>
</svg>