<?xml version="1.0" encoding="iso-8859-1"?>
<!-- Uploaded to: SVG Repo, www.svgrepo.com, Generator: SVG Repo Mixer Tools -->
<svg fill="#000000" height="800px" width="800px" version="1.1" id="Capa_1" xmlns="http://www.w3.org/2000/svg" xmlns:xlink="http://www.w3.org/1999/xlink" 
	 viewBox="0 0 470 470" xml:space="preserve">
<g>
	<path d="M175.997,88.472c4.086-0.679,6.848-4.541,6.169-8.627l-7.237-43.574c-0.679-4.086-4.536-6.852-8.627-6.169
		c-4.086,0.679-6.848,4.541-6.169,8.627l7.237,43.574c0.609,3.67,3.788,6.272,7.389,6.272
		C175.167,88.575,175.581,88.542,175.997,88.472z"/>
	<path d="M235,187.415c-20.26,0-37.369-14.468-40.681-34.401l-7.238-43.575c-0.679-4.086-4.543-6.852-8.627-6.169
		c-4.086,0.679-6.848,4.541-6.169,8.627l7.238,43.575c4.519,27.201,27.85,46.943,55.478,46.943c4.142,0,7.5-3.358,7.5-7.5
		S239.142,187.415,235,187.415z"/>
	<path d="M402.916,20.14h-35.365c-3.668,0-6.798,2.653-7.398,6.271l-0.753,4.537c-1.851,11.142-11.055,20.903-21.889,24.449
		l7.751-46.668c0.361-2.174-0.252-4.397-1.677-6.079C342.16,0.969,340.067,0,337.863,0H132.137c-2.204,0-4.296,0.969-5.721,2.65
		c-1.425,1.682-2.039,3.904-1.677,6.079l7.751,46.668c-10.833-3.546-20.038-13.307-21.889-24.449l-0.753-4.537
		c-0.601-3.619-3.73-6.271-7.398-6.271H67.084c-4.142,0-7.5,3.358-7.5,7.5c0,36.658,9.849,71.201,27.732,97.264
		c17.045,24.841,39.528,39.376,63.85,41.479c4.231,17.558,13.943,33.488,27.795,45.342c8.623,7.379,18.568,12.915,29.208,16.398
		l-0.018,41.479c-25.506,10.033-43.018,33.241-45.764,60.398h-25.816c-4.142,0-7.5,3.358-7.5,7.5v125c0,4.142,3.358,7.5,7.5,7.5
		h196.855c4.142,0,7.5-3.358,7.5-7.5v-125c0-4.142-3.358-7.5-7.5-7.5h-25.816c-2.745-27.157-20.258-50.365-45.764-60.398
		l-0.018-41.479c10.64-3.483,20.585-9.019,29.208-16.398c13.853-11.854,23.565-27.784,27.795-45.342
		c24.322-2.104,46.806-16.638,63.85-41.479c17.884-26.063,27.732-60.605,27.732-97.264C410.416,23.498,407.058,20.14,402.916,20.14z
		 M74.733,35.14h21.398c3.892,18.421,20.445,33.506,39.013,36.238l13.213,79.549C108.569,144.468,77.149,95.57,74.733,35.14z
		 M325.928,455H144.072V345h181.855V455z M292.518,330H177.482c2.815-22.015,17.893-40.521,39.373-47.585h36.289
		C274.625,289.479,289.703,307.985,292.518,330z M246.847,267.415h-23.694l0.015-35.823c3.902,0.541,7.854,0.823,11.832,0.823
		s7.929-0.283,11.832-0.823L246.847,267.415z M235,217.415c-34.995,0-64.549-25.017-70.275-59.485L140.985,15h188.029l-23.74,142.93
		C299.549,192.398,269.995,217.415,235,217.415z M321.643,150.927l13.213-79.549c18.568-2.732,35.12-17.816,39.013-36.238h21.398
		C392.851,95.57,361.431,144.468,321.643,150.927z"/>
	<path d="M159.073,367.5v65c0,4.142,3.358,7.5,7.5,7.5h86.855c4.142,0,7.5-3.358,7.5-7.5s-3.358-7.5-7.5-7.5h-79.355v-50h121.855v50
		h-12.5c-4.142,0-7.5,3.358-7.5,7.5s3.358,7.5,7.5,7.5h20c4.142,0,7.5-3.358,7.5-7.5v-65c0-4.142-3.358-7.5-7.5-7.5H166.573
		C162.431,360,159.073,363.358,159.073,367.5z"/>
</g>
</svg>